<?xml version="1.0" encoding="UTF-8"?>
<svg width="512pt" height="512pt" version="1.1" viewBox="0 0 512 512" xmlns="http://www.w3.org/2000/svg">
 <g fill="#d2d2d2" fill-rule="evenodd">
  <path d="m218.54 363.93c80.301 0 145.39-65.094 145.39-145.39 0-80.297-65.094-145.39-145.39-145.39-80.297 0-145.39 65.094-145.39 145.39 0 80.301 65.094 145.39 145.39 145.39zm0 36.57c100.5 0 181.96-81.469 181.96-181.96s-81.469-181.96-181.96-181.96-181.96 81.469-181.96 181.96 81.469 181.96 181.96 181.96z"/>
  <path d="m218.54 147.12c-39.441 0-71.414 31.973-71.414 71.414 0 10.102-8.1875 18.289-18.285 18.289-10.098 0-18.285-8.1875-18.285-18.289 0-59.637 48.348-107.98 107.98-107.98 10.102 0 18.289 8.1875 18.289 18.285 0 10.098-8.1875 18.285-18.289 18.285z"/>
  <path d="m321.08 321.08c7.1406-7.1406 18.719-7.1406 25.859 0l123.13 123.13c7.1445 7.1445 7.1445 18.723 0 25.863-7.1367 7.1406-18.715 7.1406-25.859 0l-123.13-123.13c-7.1406-7.1445-7.1406-18.723 0-25.863z"/>
 </g>
</svg>
